<svg width="100" height="60" viewBox="0 0 100 60" fill="none" xmlns="http://www.w3.org/2000/svg">
<path d="M0.30349 55.1771H41.062C43.8573 55.1771 46.5249 56.2816 48.4184 58.2228L50.1517 60L51.5603 58.4563C53.4599 56.3744 56.2262 55.1771 59.1368 55.1771H100V49.3007C100 47.5627 98.5076 46.1538 96.6667 46.1538H58.9379C56.1427 46.1538 53.4751 47.2583 51.5816 49.1995L50.1517 50.6655L48.3859 48.9718C46.5062 47.169 43.9387 46.1538 41.2591 46.1538H3.33334C1.49239 46.1538 0 47.5627 0 49.3007V55.1771H0.30349Z" fill="#ECE5D9"/>
<path fill-rule="evenodd" clip-rule="evenodd" d="M36.7115 17.2596C36.6645 17.3193 36.6193 17.3824 36.5757 17.4489C36.6223 17.3873 36.6676 17.3241 36.7115 17.2596Z" fill="#ECE5D9"/>
<path fill-rule="evenodd" clip-rule="evenodd" d="M41.9924 1.16583C41.14 2.56486 40.5539 3.59685 40.5539 5.20745C40.5539 6.0201 40.7092 6.66288 40.9217 7.54299C40.9684 7.73611 41.0178 7.94067 41.0689 8.16095C41.9569 11.8917 41.9569 12.1054 41.1222 14.068L40.3941 15.739H39.6304C39.2041 15.739 38.5648 15.8167 38.2096 15.9139C37.9565 15.9774 37.4169 16.1262 37.2833 16.2132C37.5612 15.5865 37.733 14.991 37.8011 14.6703C38.1386 13.1741 38.1386 12.2026 37.8011 10.7841C37.4992 9.50169 36.5046 7.53916 36.2027 7.63632C36.1139 7.67518 35.8653 8.14152 35.6877 8.66616C35.4035 9.42396 35.3147 10.2789 35.2437 12.9993C35.2088 13.7136 35.1084 15.1955 34.9454 16.5112C34.688 16.5112 34.0745 16.6521 33.8762 16.7106C33.2013 16.9049 32.3311 17.1963 31.9404 17.3712C31.5674 17.5461 31.2477 17.6627 31.2122 17.6238C31.1767 17.585 31.4786 17.0603 31.8516 16.4385C33.3967 13.9708 33.6276 10.4344 32.4732 7.07282C32.0647 5.8681 31.6562 5.052 31.4964 5.052C31.2655 5.052 30.2354 7.2477 29.9868 8.27753C29.6849 9.54055 29.7204 9.96803 30.3775 12.6301C30.9281 14.8452 30.9813 16.7106 30.5373 17.6433C30.3775 17.993 29.7026 18.9063 29.0633 19.6835C28.4239 20.4607 27.607 21.5489 27.2518 22.1318L26.6124 23.2005L26.5591 22.3261C26.5236 21.8598 26.5769 21.0242 26.7012 20.4802C27.6684 16.2475 27.1527 13.3102 26.5671 11.95C26.2001 11.0974 25.1384 9.8903 25.1384 9.8903L24.6944 10.7258C24.0195 11.9888 23.7827 12.8626 23.7827 14.0473C23.7827 14.8936 23.8597 16.0693 24.4457 17.3324C25.902 20.5773 26.3992 22.5578 26.0086 22.8313C25.9684 22.8595 25.886 22.7065 25.7939 22.5355C25.7481 22.4505 25.7 22.3611 25.6534 22.2872C25.5131 22.0648 25.0483 21.3362 24.7108 20.9864C24.3201 20.5978 23.7337 20.3317 23.2381 20.3053C22.5099 20.2664 21.8528 19.8584 21.8528 19.8584C21.8528 19.8584 20.5918 18.9555 19.4907 18.9555C17.7498 18.9555 16.6669 20.2859 16.6669 21.2768C16.6669 22.7536 18.07 23.6944 19.4907 23.6944C21.1779 23.6944 22.298 22.2872 22.6165 21.2768C22.7941 20.7133 22.9006 20.5968 23.3269 20.5968C23.9129 20.5968 24.9785 21.51 25.387 22.365C25.76 23.1616 25.7067 23.764 25.014 27.2033C24.2859 30.8174 24.2326 32.4691 24.7476 34.6842C25.4748 36.4236 26.5136 38.4705 27.2445 39.8063L28.1533 41.3554C28.6416 41.6817 29.4077 41.3237 29.432 40.6361C28.8713 39.7589 28.3768 39.0561 28.0902 38.6487C27.9912 38.5079 27.917 38.4025 27.8734 38.3372C27.5359 37.8126 26.8966 36.5884 26.4526 35.578C25.7244 33.9264 25.6356 33.5961 25.6356 32.3913C25.6356 30.6814 25.9731 29.8847 26.8788 29.4378C27.2518 29.2435 27.607 28.9909 27.6603 28.8355C27.7135 28.6606 27.5537 28.7189 27.1807 28.9521C26.1507 29.6516 26.0619 29.3407 27.0031 28.3691C28.495 26.873 30.342 26.29 32.0647 26.8147C32.9172 27.0867 34.4978 28.6606 35.0839 29.8653C35.3503 30.3705 35.6522 31.2255 35.7587 31.7696C35.8831 32.2942 36.0962 32.9548 36.2383 33.188C36.4869 33.6349 36.5046 33.6349 36.8598 33.2852C37.8722 32.3136 38.1563 30.1568 37.5347 28.3108C36.8598 26.3483 35.1904 25.1436 32.8994 24.9299C31.3365 24.7938 31.6207 24.5412 33.5565 24.3664C35.2615 24.2109 37.9254 24.5412 39.2041 25.0853C40.2048 25.4911 41.0252 26.149 41.5943 26.95L43.0758 29.0686C43.1823 29.1464 43.4843 29.7293 43.7684 30.39C44.0526 31.0312 44.2835 31.7696 44.2835 31.9833C44.2835 32.342 44.1038 32.4175 43.9042 32.5013C43.8828 32.5103 43.8612 32.5194 43.8395 32.529C42.1908 33.3414 41.9788 35.3155 42.0361 35.8801C42.3455 38.9265 44.5112 38.9265 44.5112 38.9265C45.3009 38.9265 45.6961 38.5731 46.0243 38.2797C46.0357 38.2696 46.0469 38.2595 46.0581 38.2495C46.6276 37.7418 46.9719 36.6185 46.9862 35.8801C47.0191 34.1876 46.1681 32.9866 45.2846 32.6644C44.7074 32.4539 44.5498 32.2553 44.4255 31.4975C44.2657 30.4288 43.5908 28.8549 42.8804 27.9028C42.5785 27.4947 42.3299 27.0673 42.3299 26.9701C42.3299 26.5815 43.2179 27.3587 44.6386 29.0104C47.8709 32.7994 48.2439 33.1297 49.789 33.9847C51.5117 34.8979 53.0923 35.2671 54.4953 35.0728C55.5965 34.9368 55.6675 34.7619 55.0637 33.7904C54.7846 33.3414 53.7139 32.4496 51.6538 31.6724C50.7835 31.3226 49.7002 30.8369 49.2562 30.5648C48.0663 29.8265 45.1359 27.5725 45.2247 27.4753C45.278 27.417 46.6455 27.8834 48.2972 28.4857C50.08 29.263 51.7015 29.4487 52.091 29.4487C52.5551 29.4487 53.0746 29.3213 53.1101 29.263C53.3054 29.0686 52.5595 27.9222 51.8669 27.3782C49.9844 25.8625 48.7057 25.4934 44.6386 25.2408C42.7561 25.1242 41.2288 24.9299 40.7315 24.755C39.2219 24.1915 37.3216 23.9 35.0306 23.9C32.4199 23.9 30.786 24.2303 29.0633 25.0853C28.4417 25.3768 27.9444 25.5516 27.9444 25.4545C27.9444 24.8327 33.8229 20.6745 35.9719 19.7807C37.8366 19.0034 39.6126 19.3143 42.5075 20.8882C44.7097 22.0929 46.3969 22.637 49.1496 23.0256C49.5565 23.0833 49.7939 23.1375 49.8511 23.0503C49.9288 22.9318 49.6744 22.5528 49.0608 21.5683C48.1906 20.1693 47.4092 19.3726 46.3081 18.7702C44.6742 17.8764 41.8504 17.3518 40.5006 17.6821C40.0211 17.7987 39.5593 17.8376 39.4705 17.7793C39.3817 17.7015 39.5771 17.3129 39.8968 16.866L40.4651 16.0888L41.7083 16.2054C44.3367 16.458 47.569 17.4295 49.9666 18.712C51.121 19.3143 51.7603 19.8195 52.7194 20.8688C54.0691 22.365 54.7617 23.6474 55.7563 26.4455C56.9995 30.0013 58.2782 32.1387 59.6102 32.916C59.9654 33.1297 60.3561 33.2269 60.5337 33.1491C61.0487 32.9354 60.7823 31.2255 59.8766 28.9132C58.9708 26.5815 58.2782 25.3768 56.6265 23.2588C55.9694 22.4427 55.4899 21.7626 55.5432 21.7626C55.5965 21.7626 56.0227 22.0152 56.5022 22.3261C56.9817 22.637 57.9585 23.2005 58.6867 23.6086C59.4148 23.9972 60.4271 24.6773 60.9422 25.0853C61.99 25.9597 63.3397 27.9999 62.9668 28.136C62.4052 28.3408 61.7214 29.1464 61.5271 30.1257C61.2178 31.4797 61.6818 33.9193 63.2287 35.0339C63.9569 35.5585 64.7756 35.7108 65.5491 35.0339C66.4772 34.0184 66.4772 32.3259 66.3225 31.6489C66.1678 30.972 65.6653 29.1464 64.3116 28.4333C63.832 28.1807 63.4996 27.7473 62.7004 26.5621C61.4039 24.6773 61.4394 24.5607 63.1799 25.2796C64.5297 25.8237 65.8084 26.7952 68.5256 29.3601C72.1841 32.7994 74.1022 34.0041 75.8782 34.0041C76.926 34.0041 77.0503 33.8098 76.6419 32.8188C76.2689 31.9056 75.6118 31.1672 73.232 28.9521C71.4737 27.3199 70.7811 26.9312 68.6677 26.426C66.8917 25.9986 65.4709 25.4934 65.3288 25.2602C65.2756 25.163 65.5242 25.027 65.8972 24.9687C66.2701 24.891 66.7674 24.7744 67.016 24.6773C67.2647 24.5801 68.3658 24.4635 69.4669 24.4052C72.9478 24.1915 74.7593 23.6668 76.5175 22.3455C76.9793 21.9958 77.8318 21.4906 78.4356 21.1797C79.661 20.5773 80.4425 19.8001 80.2826 19.3532C80.1405 18.9646 79.1105 18.7702 77.743 18.9063C76.3577 19.0229 74.7593 19.8001 72.0065 21.7432C69.609 23.4337 69.2182 23.6085 70.053 22.6176C71.456 20.9659 74.262 17.1186 74.8659 16.0305C75.967 14.0291 77.1747 10.2401 76.8727 9.69599C76.6241 9.26851 73.9865 10.7728 72.9742 12.0164L72.9656 12.0273C72.1858 13.0162 71.2424 14.2126 71.1008 16.5551C70.9765 18.3233 70.8699 18.848 70.4082 19.8584C69.6267 21.6266 68.3125 23.3171 67.2824 23.9C66.4832 24.3469 66.1991 24.3858 64.2633 24.3858C63.0201 24.3858 61.7236 24.2692 61.1553 24.1138L60.1963 23.8417L61.7236 23.5114C64.7605 22.8313 67.1226 20.9077 68.3835 18.1096C69.0051 16.7494 69.0584 16.5163 69.0584 14.9424C69.0584 13.9708 68.9696 13.1353 68.863 13.0187C68.5966 12.7272 67.1048 13.8542 66.3767 14.9035C65.8439 15.6613 65.5775 16.4191 64.7783 19.3337C64.3521 20.8494 63.2509 22.1124 61.8124 22.7147C59.8233 23.5114 58.7222 23.2005 55.4189 20.9271L53.856 19.8389L54.7085 19.7029C55.1517 19.6283 55.6965 19.465 55.9719 19.3825L56.0049 19.3726C56.0223 19.3674 56.042 19.3614 56.0637 19.3548C56.3701 19.2617 57.0924 19.0423 57.8164 19.0423C60.1349 19.1247 61.5271 16.7553 61.5271 15.5706C61.5271 14.4241 61.2086 13.6793 60.2495 13.4073C58.882 12.9993 57.4013 14.2463 56.8864 15.2321C56.2677 16.4168 56.2919 17.1601 56.577 17.94C56.7927 18.5298 54.6907 19.7612 53.0923 19.392C52.3642 19.2366 48.9898 17.8181 48.7412 17.585C48.7234 17.5461 48.9898 17.4295 49.3628 17.3129C50.3928 17.002 52.6128 15.5058 53.785 14.34C55.1347 12.9993 56.076 11.3865 56.6265 9.48225C56.8752 8.62729 57.0705 7.90835 57.0705 7.85006C57.0705 7.59745 56.1825 7.85006 55.188 8.37469C53.3765 9.36567 52.4707 10.4538 51.2986 13.1353C49.6292 16.9632 48.8122 17.5655 46.4146 16.73L45.4378 16.3997L46.5922 15.739C47.2316 15.3698 48.2261 14.5343 48.83 13.8931C50.6415 11.9305 51.4229 9.55998 51.4584 5.79037C51.4762 3.10891 51.3696 2.8563 50.4284 3.47809C49.2207 4.29419 48.1196 6.08184 47.6578 7.94721C47.5513 8.43299 47.3381 9.8903 47.2138 11.1922C46.9474 13.7571 46.5922 14.8258 45.7753 15.5253C45.5089 15.7584 45.1004 15.9916 44.8518 16.0693C44.4966 16.1665 41.6195 15.8556 40.9624 15.6419C40.838 15.5836 41.0512 15.0006 41.5484 14.0485C43.1823 10.9007 44.4757 7.63403 44.5112 4.73882C44.527 3.12921 44.3237 2.67272 43.9026 1.72708C43.8509 1.61106 43.796 1.48769 43.7377 1.35391C43.4181 0.634968 42.987 -3.43323e-05 42.8804 -3.43323e-05C42.7916 -3.43323e-05 42.4009 0.524609 41.9924 1.16583ZM33.3434 17.5655C34.5095 17.0832 34.833 16.9996 34.8335 17.3145C34.8337 17.3929 34.8138 17.496 34.7819 17.6238C34.7287 17.9153 34.3024 18.712 33.8584 19.392C33.2013 20.4219 32.704 20.8688 30.9991 22.0929C29.7914 22.9479 28.3706 24.1526 27.607 24.9881C26.8966 25.7848 26.275 26.426 26.2395 26.426C25.9908 26.426 26.275 25.4351 26.9854 23.8806C27.6425 22.4816 28.122 21.7432 29.1698 20.5968C30.6261 18.984 31.6385 18.265 33.3434 17.5655ZM36.5757 17.4489C36.6193 17.3824 36.6645 17.3193 36.7115 17.2596C37.2003 16.6386 38.1689 16.2475 39.097 16.0783C39.097 16.0783 39.4217 16.0267 39.6304 16.0356C39.7856 16.0423 40.0252 16.0888 40.0252 16.0888L39.5593 16.7494C38.9423 17.6821 34.6931 20.2664 34.6931 19.8584C34.6931 19.7807 35.0128 19.3532 35.4035 18.9451C35.7943 18.5176 36.327 17.857 36.5757 17.4489Z" fill="#ECE5D9"/>
</svg>
