<svg width="284" height="48" viewBox="0 0 284 48" fill="none" xmlns="http://www.w3.org/2000/svg">
<path d="M279 0C281.761 4.38093e-06 284 2.23858 284 5V43C284 45.7614 281.761 48 279 48H5C2.23858 48 0 45.7614 0 43V5C5.15422e-07 2.23858 2.23858 9.26119e-08 5 0H279ZM98.1191 16.0801C96.9726 16.0801 95.9189 16.2798 94.959 16.6797C93.999 17.0797 93.2387 17.6671 92.6787 18.4404C92.1189 19.187 91.8389 20.1338 91.8389 21.2803C91.8389 22.2399 92.0253 23.013 92.3984 23.5996C92.7984 24.1863 93.319 24.6667 93.959 25.04C94.5989 25.4133 95.2657 25.72 95.959 25.96C96.6523 26.1733 97.319 26.413 97.959 26.6797C98.5988 26.9196 99.1186 27.213 99.5186 27.5596C99.9185 27.9062 100.119 28.3867 100.119 29C100.119 29.5333 99.8918 30.0271 99.4385 30.4805C99.0118 30.9335 98.3315 31.1602 97.3984 31.1602C96.5452 31.1601 95.6252 30.9863 94.6387 30.6396C93.6789 30.2664 92.8524 29.7733 92.1592 29.1602L91.1191 32.3203C91.5457 32.5869 92.0789 32.8402 92.7188 33.0801C93.3587 33.2934 94.0522 33.4663 94.7988 33.5996C95.5722 33.7329 96.3592 33.7998 97.1592 33.7998C98.2523 33.7998 99.2125 33.6403 100.039 33.3203C100.866 33.027 101.559 32.6268 102.119 32.1201C102.679 31.5869 103.092 30.9868 103.358 30.3203C103.652 29.627 103.799 28.9068 103.799 28.1602C103.799 27.2002 103.586 26.4131 103.159 25.7998C102.759 25.1865 102.239 24.6936 101.599 24.3203C100.959 23.947 100.279 23.6404 99.5586 23.4004C98.8386 23.1337 98.1585 22.8796 97.5186 22.6396C96.9054 22.3997 96.3856 22.1197 95.959 21.7998C95.5591 21.4532 95.3585 21.0002 95.3584 20.4404C95.3584 19.9604 95.559 19.5469 95.959 19.2002C96.359 18.8269 97.0123 18.6396 97.9189 18.6396C98.4256 18.6397 99.0924 18.7734 99.9189 19.04C100.746 19.28 101.426 19.6803 101.959 20.2402L103.039 17.2803C102.372 16.9069 101.599 16.6137 100.719 16.4004C99.8389 16.1871 98.9724 16.0801 98.1191 16.0801ZM81.8799 16.1201C80.2001 16.1202 78.6936 16.5204 77.3604 17.3203C76.0272 18.0936 74.9601 19.1864 74.1602 20.5996C73.3869 22.0128 73.0001 23.6531 73 25.5195C73 27.2528 73.3468 28.7333 74.04 29.96C74.7333 31.1865 75.6935 32.1332 76.9199 32.7998C78.1732 33.4398 79.5869 33.7597 81.1602 33.7598C81.9068 33.7598 82.6671 33.6795 83.4404 33.5195C84.2137 33.3595 84.9875 33.0663 85.7607 32.6396C86.5606 32.213 87.3336 31.6264 88.0801 30.8799L86.8008 28.8398C86.0541 29.4798 85.2805 29.9603 84.4805 30.2803C83.6805 30.5736 82.8533 30.7197 82 30.7197C80.4268 30.7196 79.1467 30.2134 78.1602 29.2002C77.2002 28.1602 76.7207 26.7333 76.7207 24.9199C76.7207 24.9066 76.7216 24.8932 76.7217 24.8799H88.0801C88.1334 24.5866 88.1602 24.2799 88.1602 23.96V23.04C88.1602 20.9068 87.6272 19.2267 86.5605 18C85.5205 16.7467 83.9599 16.1201 81.8799 16.1201ZM110.508 13.04L109.27 16.8926L106.228 16.96L105.987 19.2803L109.107 19.2891V28.2803C109.107 29.4268 109.347 30.4003 109.827 31.2002C110.334 32.0001 111.001 32.6 111.827 33C112.654 33.4 113.561 33.5996 114.548 33.5996C115.454 33.5996 116.374 33.4267 117.308 33.0801C118.267 32.7068 119.147 32.1202 119.947 31.3203L118.827 29.5996C118.294 29.9729 117.747 30.2538 117.188 30.4404C116.654 30.6004 116.148 30.6796 115.668 30.6797C114.895 30.6797 114.267 30.4266 113.787 29.9199C113.307 29.4132 113.067 28.626 113.067 27.5596V19.3018L118.827 19.3203L119.067 16.6797L113.067 16.8105V12.5205L110.508 13.04ZM125.78 28.2402C124.954 28.2402 124.287 28.4801 123.78 28.96C123.274 29.4399 123.021 30.0933 123.021 30.9199C123.021 31.7199 123.274 32.3598 123.78 32.8398C124.287 33.3198 124.954 33.5596 125.78 33.5596C126.58 33.5595 127.22 33.3198 127.7 32.8398C128.207 32.3599 128.46 31.7198 128.46 30.9199C128.46 30.0933 128.207 29.4399 127.7 28.96C127.22 28.48 126.58 28.2403 125.78 28.2402ZM168.366 16.3203C166.633 16.3204 165.086 16.6938 163.727 17.4404C162.367 18.1604 161.286 19.1605 160.486 20.4404C159.713 21.7203 159.327 23.2001 159.327 24.8799C159.327 26.5332 159.713 28.0136 160.486 29.3203C161.286 30.6269 162.367 31.6671 163.727 32.4404C165.113 33.187 166.673 33.5595 168.406 33.5596C170.166 33.5596 171.714 33.2005 173.047 32.4805C174.407 31.7338 175.474 30.7204 176.247 29.4404C177.02 28.1338 177.406 26.6533 177.406 25C177.406 23.32 177.02 21.8396 176.247 20.5596C175.474 19.2531 174.393 18.2271 173.007 17.4805C171.647 16.7071 170.1 16.3203 168.366 16.3203ZM208.804 7C206.564 7.74666 204.55 8.73332 202.764 9.95996C201.004 11.1866 199.497 12.5869 198.244 14.1602C197.017 15.7335 196.084 17.4002 195.444 19.1602C194.804 20.92 194.484 22.7064 194.484 24.5195C194.484 26.4129 194.818 28.0404 195.484 29.4004C196.151 30.7601 197.071 31.7996 198.244 32.5195C199.444 33.2129 200.804 33.5596 202.324 33.5596C203.977 33.5595 205.471 33.1736 206.804 32.4004C208.137 31.6271 209.191 30.6002 209.964 29.3203C210.737 28.0136 211.124 26.5733 211.124 25C211.124 23.8267 210.898 22.7197 210.444 21.6797C209.991 20.6132 209.297 19.7467 208.364 19.0801C207.431 18.3867 206.217 18.04 204.724 18.04C203.63 18.0401 202.617 18.2397 201.684 18.6396C200.75 19.013 199.911 19.5336 199.164 20.2002C199.118 20.2398 199.072 20.28 199.026 20.3203C199.081 20.1331 199.141 19.9461 199.204 19.7598C199.684 18.3199 200.391 16.9596 201.324 15.6797C202.284 14.3999 203.471 13.2267 204.884 12.1602C206.297 11.0935 207.951 10.2005 209.844 9.48047L208.804 7ZM149.017 16.3203C147.71 16.3203 146.469 16.6135 145.296 17.2002C144.149 17.7602 143.11 18.6535 142.177 19.8799L144.137 21.7598C144.643 20.9866 145.257 20.4534 145.977 20.1602C146.696 19.8402 147.363 19.6797 147.977 19.6797C148.99 19.6798 149.71 19.9997 150.137 20.6396C150.59 21.2795 150.816 21.9197 150.816 22.5596C150.816 23.1729 150.629 23.8004 150.256 24.4404C149.909 25.0803 149.376 25.7473 148.656 26.4404C147.963 27.1336 147.083 27.8799 146.017 28.6797C144.977 29.453 143.763 30.3203 142.376 31.2803L142.977 33.3203H157.256V30H148.329C148.811 29.6821 149.267 29.3623 149.696 29.04C150.79 28.2134 151.723 27.3862 152.496 26.5596C153.269 25.733 153.856 24.8933 154.256 24.04C154.682 23.1869 154.896 22.3336 154.896 21.4805C154.896 20.6805 154.683 19.8935 154.256 19.1201C153.856 18.3202 153.216 17.6534 152.336 17.1201C151.483 16.5869 150.376 16.3204 149.017 16.3203ZM180.179 20.2803L181.578 22.7598L185.538 20.5303V33.3203H189.419V16.5996H186.778L180.179 20.2803ZM203.044 21C203.951 21 204.684 21.2397 205.244 21.7197C205.831 22.1729 206.27 22.7731 206.563 23.5195C206.883 24.2662 207.044 25.0933 207.044 26C207.044 26.88 206.87 27.6804 206.523 28.4004C206.177 29.0935 205.697 29.6535 205.084 30.0801C204.497 30.4801 203.777 30.6797 202.924 30.6797C202.071 30.6797 201.297 30.4266 200.604 29.9199C199.937 29.4133 199.417 28.6662 199.044 27.6797C198.671 26.6664 198.484 25.4666 198.484 24.0801C198.484 23.6461 198.507 23.2145 198.549 22.7852C199.093 22.2817 199.698 21.8853 200.364 21.5996C201.297 21.1997 202.191 21 203.044 21ZM168.366 19.4404C169.38 19.4404 170.274 19.6935 171.047 20.2002C171.847 20.6802 172.46 21.3469 172.887 22.2002C173.313 23.0268 173.526 23.9734 173.526 25.04C173.526 26.08 173.313 27.0132 172.887 27.8398C172.46 28.6397 171.86 29.2798 171.087 29.7598C170.314 30.2131 169.433 30.4404 168.446 30.4404C167.46 30.4404 166.553 30.1997 165.727 29.7197C164.927 29.2131 164.287 28.5329 163.807 27.6797C163.353 26.8264 163.127 25.8797 163.127 24.8398C163.127 23.7733 163.353 22.84 163.807 22.04C164.287 21.2401 164.927 20.6135 165.727 20.1602C166.526 19.6802 167.406 19.4405 168.366 19.4404ZM81.5205 18.8799C82.6937 18.8799 83.52 19.2401 84 19.96C84.4195 20.5659 84.6561 21.4061 84.709 22.4805H77.0322C77.103 22.2309 77.1853 21.9904 77.2803 21.7598C77.6802 20.8266 78.2401 20.1196 78.96 19.6396C79.7066 19.133 80.5605 18.8799 81.5205 18.8799Z" fill="#F0EFED"/>
</svg>
