<svg width="567" height="335" viewBox="0 0 567 335" fill="none" xmlns="http://www.w3.org/2000/svg">
<path d="M1.72079 307.979H232.822C248.671 307.979 263.796 314.143 274.532 324.976L284.36 334.894L292.347 326.279C303.118 314.66 318.802 307.979 335.306 307.979H567V275.184C567 265.485 558.538 257.622 548.1 257.622H334.178C318.329 257.622 303.204 263.786 292.468 274.619L284.36 282.801L274.348 273.349C263.69 263.288 249.132 257.622 233.939 257.622H18.9C8.46183 257.622 0 265.485 0 275.184V307.979H1.72079Z" fill="#F0EFED"/>
<path fill-rule="evenodd" clip-rule="evenodd" d="M208.17 96.3719C207.903 96.7054 207.647 97.0575 207.4 97.4288C207.664 97.0849 207.921 96.732 208.17 96.3719Z" fill="#F0EFED"/>
<path fill-rule="evenodd" clip-rule="evenodd" d="M238.113 6.55746C233.279 14.365 229.956 20.1243 229.956 29.1125C229.956 33.6477 230.836 37.2349 232.042 42.1465C232.306 43.2243 232.586 44.3659 232.876 45.5952C237.911 66.4154 237.911 67.6082 233.178 78.5605L229.05 87.8862H224.72C222.303 87.8862 218.678 88.3199 216.664 88.8621C215.229 89.2166 212.17 90.0468 211.412 90.5324C212.988 87.0348 213.962 83.7115 214.348 81.9221C216.261 73.5723 216.261 68.1504 214.348 60.2344C212.636 53.0775 206.997 42.1252 205.285 42.6674C204.781 42.8842 203.372 45.4868 202.365 48.4146C200.754 52.6437 200.25 57.415 199.847 72.5964C199.649 76.5831 199.08 84.853 198.156 92.1954C196.696 92.1954 193.218 92.9819 192.093 93.3081C188.267 94.3925 183.333 96.0191 181.117 96.995C179.003 97.971 177.19 98.6216 176.989 98.4047C176.787 98.1878 178.499 95.26 180.614 91.79C189.375 78.0183 190.684 58.2825 184.138 39.5226C181.822 32.7995 179.506 28.245 178.6 28.245C177.291 28.245 171.45 40.4986 170.041 46.2458C168.329 53.2943 168.53 55.68 172.256 70.5361C175.378 82.898 175.68 93.3081 173.162 98.5132C172.256 100.465 168.429 105.562 164.804 109.899C161.179 114.237 156.547 120.309 154.533 123.562L150.908 129.527L150.606 124.647C150.404 122.044 150.707 117.381 151.411 114.345C156.895 90.7241 153.971 74.3314 150.651 66.7407C148.57 61.9826 142.55 55.2462 142.55 55.2462L140.033 59.9091C136.206 66.9576 134.863 71.8339 134.863 78.4454C134.863 83.168 135.3 89.7296 138.623 96.7781C146.88 114.887 149.699 125.94 147.484 127.466C147.256 127.623 146.789 126.77 146.267 125.816C146.007 125.341 145.734 124.842 145.47 124.43C144.675 123.189 142.039 119.122 140.126 117.17C137.911 115.002 134.586 113.517 131.775 113.369C127.647 113.152 123.921 110.875 123.921 110.875C123.921 110.875 116.771 105.836 110.528 105.836C100.657 105.836 94.517 113.261 94.517 118.791C94.517 127.032 102.472 132.283 110.528 132.283C120.094 132.283 126.445 124.43 128.251 118.791C129.258 115.646 129.862 114.996 132.279 114.996C135.602 114.996 141.644 120.092 143.96 124.864C146.074 129.31 145.772 132.671 141.845 151.865C137.716 172.034 137.414 181.252 140.335 193.614C144.458 203.321 150.348 214.744 154.492 222.199L159.645 230.844C162.413 232.665 166.757 230.667 166.895 226.829C163.716 221.934 160.912 218.012 159.287 215.738C158.725 214.953 158.305 214.364 158.057 214C156.144 211.072 152.519 204.241 150.002 198.602C145.873 189.385 145.37 187.541 145.37 180.818C145.37 171.275 147.283 166.829 152.418 164.335C154.533 163.251 156.547 161.841 156.849 160.974C157.151 159.998 156.245 160.323 154.13 161.624C148.29 165.528 147.786 163.793 153.123 158.371C161.582 150.021 172.055 146.768 181.822 149.696C186.656 151.214 195.618 159.998 198.941 166.721C200.451 169.54 202.163 174.312 202.768 177.348C203.472 180.276 204.681 183.963 205.486 185.264C206.896 187.758 206.997 187.758 209.011 185.806C214.751 180.384 216.362 168.348 212.837 158.046C209.011 147.094 199.545 140.37 186.555 139.178C177.694 138.419 179.305 137.009 190.281 136.033C199.948 135.165 215.053 137.009 222.303 140.045C227.976 142.31 232.628 145.982 235.855 150.451L244.255 162.275C244.859 162.709 246.571 165.962 248.182 169.649C249.794 173.227 251.103 177.348 251.103 178.541C251.103 180.543 250.084 180.964 248.953 181.432C248.831 181.482 248.708 181.533 248.585 181.586C239.238 186.12 238.035 197.137 238.36 200.288C240.115 217.289 252.394 217.289 252.394 217.289C256.871 217.289 259.113 215.317 260.973 213.679C261.038 213.623 261.101 213.566 261.165 213.511C264.394 210.677 266.346 204.409 266.427 200.288C266.614 190.843 261.788 184.14 256.779 182.342C253.507 181.167 252.613 180.059 251.908 175.83C251.002 169.866 247.175 161.082 243.147 155.769C241.436 153.491 240.026 151.106 240.026 150.564C240.026 148.395 245.061 152.732 253.117 161.95C271.444 183.095 273.558 184.939 282.319 189.71C292.087 194.806 301.049 196.867 309.004 195.782C315.247 195.023 315.65 194.047 312.226 188.626C310.644 186.12 304.573 181.143 292.892 176.806C287.958 174.854 281.816 172.143 279.298 170.625C272.551 166.504 255.936 153.925 256.44 153.383C256.742 153.058 264.495 155.66 273.86 159.022C283.969 163.359 293.163 164.396 295.372 164.396C298.003 164.396 300.948 163.685 301.15 163.359C302.257 162.275 298.028 155.877 294.101 152.841C283.427 144.383 276.177 142.322 253.117 140.913C242.443 140.262 233.783 139.178 230.963 138.202C222.404 135.057 211.629 133.43 198.639 133.43C183.836 133.43 174.572 135.274 164.804 140.045C161.28 141.672 158.46 142.648 158.46 142.105C158.46 138.635 191.791 115.43 203.976 110.441C214.549 106.104 224.619 107.839 241.033 116.622C253.519 123.346 263.086 126.382 278.694 128.551C281.001 128.873 282.347 129.175 282.671 128.688C283.112 128.027 281.669 125.912 278.19 120.418C273.256 112.61 268.826 108.164 262.582 104.803C253.318 99.8144 237.307 96.8866 229.654 98.73C226.935 99.3807 224.317 99.5975 223.813 99.2722C223.31 98.8385 224.418 96.6697 226.23 94.1756L229.453 89.8381L236.501 90.4887C251.405 91.8984 269.732 97.3203 283.326 104.477C289.871 107.839 293.497 110.658 298.934 116.514C306.587 124.864 310.515 132.021 316.154 147.636C323.203 167.48 330.453 179.408 338.005 183.746C340.019 184.939 342.235 185.481 343.242 185.047C346.162 183.854 344.651 174.312 339.516 161.407C334.38 148.395 330.453 141.672 321.088 129.852C317.362 125.297 314.643 121.502 314.945 121.502C315.247 121.502 317.664 122.912 320.383 124.647C323.102 126.382 328.64 129.527 332.769 131.804C336.898 133.973 342.637 137.768 345.558 140.045C351.499 144.925 359.152 156.311 357.037 157.07C353.853 158.213 349.976 162.709 348.874 168.174C347.12 175.73 349.751 189.345 358.522 195.565C362.651 198.493 367.293 199.343 371.679 195.565C376.941 189.898 376.941 180.453 376.064 176.675C375.187 172.897 372.337 162.709 364.662 158.729C361.943 157.319 360.058 154.901 355.527 148.286C348.176 137.768 348.377 137.117 358.246 141.129C365.899 144.166 373.149 149.588 388.556 163.902C409.3 183.095 420.175 189.818 430.245 189.818C436.186 189.818 436.891 188.734 434.575 183.204C432.46 178.107 428.734 173.986 415.241 161.624C405.272 152.516 401.344 150.347 389.361 147.527C379.291 145.142 371.236 142.322 370.43 141.021C370.128 140.479 371.538 139.72 373.652 139.394C375.767 138.961 378.587 138.31 379.996 137.768C381.406 137.226 387.649 136.575 393.893 136.25C413.63 135.057 423.901 132.129 433.87 124.755C436.488 122.803 441.322 119.984 444.745 118.249C451.694 114.887 456.124 110.55 455.218 108.056C454.412 105.887 448.572 104.803 440.818 105.562C432.964 106.212 423.901 110.55 408.293 121.394C394.698 130.828 392.483 131.804 397.216 126.273C405.171 117.056 421.081 95.5853 424.505 89.5128C430.748 78.3436 437.596 57.1981 435.884 54.1618C434.474 51.7762 419.519 60.1712 413.779 67.1113L413.73 67.1722C409.309 72.6908 403.96 79.3677 403.157 92.4406C402.452 102.308 401.848 105.236 399.23 110.875C394.799 120.743 387.347 130.177 381.507 133.43C376.975 135.924 375.364 136.141 364.388 136.141C357.339 136.141 349.988 135.491 346.766 134.623L341.328 133.105L349.988 131.262C367.208 127.466 380.601 116.731 387.75 101.116C391.275 93.525 391.577 92.2237 391.577 83.4402C391.577 78.0183 391.073 73.3554 390.469 72.7048C388.958 71.0782 380.5 77.3677 376.371 83.2233C373.35 87.4525 371.84 91.6815 367.308 107.947C364.892 116.405 358.648 123.454 350.492 126.816C339.214 131.262 332.97 129.527 314.24 116.839L305.379 110.767L310.213 110.008C312.726 109.591 315.815 108.68 317.376 108.219L317.563 108.164C317.662 108.135 317.773 108.102 317.897 108.065C319.634 107.545 323.73 106.321 327.835 106.321C340.98 106.781 348.874 93.5577 348.874 86.9461C348.874 80.5482 347.068 76.3917 341.63 74.8736C333.877 72.5964 325.481 79.5559 322.561 85.057C319.053 91.6686 319.19 95.8166 320.807 100.169C322.03 103.461 310.112 110.333 301.049 108.273C296.92 107.405 277.788 99.4891 276.378 98.1879C276.277 97.971 277.788 97.3203 279.902 96.6697C285.743 94.9347 298.33 86.5849 304.976 80.0786C312.629 72.5964 317.966 63.596 321.088 52.969C322.498 48.1977 323.605 44.1855 323.605 43.8602C323.605 42.4505 318.57 43.8602 312.931 46.788C302.66 52.3184 297.525 58.3909 290.878 73.3554C281.413 94.7178 276.781 98.0794 263.186 93.4165L257.648 91.5731L264.193 87.8862C267.819 85.8259 273.458 81.163 276.881 77.5845C287.153 66.6322 291.583 53.4028 291.785 32.3657C291.885 17.4012 291.281 15.9915 285.944 19.4615C279.097 24.0159 272.853 33.9923 270.235 44.4024C269.631 47.1133 268.423 55.2462 267.718 62.5116C266.207 76.8255 264.193 82.7896 259.561 86.6934C258.051 87.9946 255.735 89.2959 254.325 89.7296C252.311 90.2718 235.998 88.5368 232.272 87.344C231.567 87.0187 232.776 83.7655 235.595 78.4521C244.859 60.885 252.193 42.6546 252.394 26.4973C252.484 17.5145 251.331 14.967 248.943 9.68965C248.65 9.04219 248.339 8.35365 248.008 7.60712C246.196 3.59489 243.752 0.0511169 243.147 0.0511169C242.644 0.0511169 240.429 2.97899 238.113 6.55746ZM189.073 98.0794C195.684 95.3877 197.518 94.9209 197.522 96.6787C197.522 97.1163 197.41 97.6916 197.229 98.4047C196.927 100.031 194.51 104.477 191.993 108.273C188.267 114.02 185.447 116.514 175.78 123.346C168.933 128.117 160.877 134.84 156.547 139.503C152.519 143.949 148.995 147.527 148.793 147.527C147.383 147.527 148.995 141.997 153.023 133.322C156.748 125.514 159.467 121.394 165.408 114.996C173.666 105.995 179.406 101.983 189.073 98.0794ZM207.4 97.4288C207.647 97.0575 207.903 96.7054 208.17 96.3719C210.941 92.9067 216.433 90.7241 221.696 89.7796C221.696 89.7796 223.536 89.4915 224.72 89.5414C225.6 89.5785 226.958 89.8381 226.958 89.8381L224.317 93.525C220.819 98.73 196.726 113.152 196.726 110.875C196.726 110.441 198.538 108.056 200.754 105.779C202.969 103.393 205.99 99.706 207.4 97.4288Z" fill="#F0EFED"/>
</svg>
